<svg class="icon-calendar" version="1.1" xmlns="http://www.w3.org/2000/svg" x="0px" y="0px" width="26px" height="26px" viewBox="0 0 24 24"><path d="M19.334,22.5H4.666C3.194,22.5,2,21.325,2,19.876V4.124C2,2.675,3.194,1.5,4.666,1.5h14.668C20.806,1.5,22,2.675,22,4.124v15.752C22,21.325,20.806,22.5,19.334,22.5L19.334,22.5zM20.666,4.124c0-0.724-0.596-1.312-1.332-1.312H4.666c-0.735,0-1.332,0.588-1.332,1.312v1.313h17.332V4.124L20.666,4.124zM20.666,6.749H3.334v13.127c0,0.724,0.597,1.312,1.332,1.312h14.668c0.736,0,1.332-0.588,1.332-1.312V6.749L20.666,6.749zM17.333,18.562c-1.104,0-2-0.881-2-1.967c0-1.089,0.896-1.971,2-1.971c1.105,0,2.001,0.882,2.001,1.971C19.334,17.681,18.438,18.562,17.333,18.562L17.333,18.562z M18,15.937h-1.334v1.313H18V15.937L18,15.937z M17.333,13.312c-1.104,0-2-0.88-2-1.969c0-1.087,0.896-1.967,2-1.967c1.105,0,2.001,0.88,2.001,1.967C19.334,12.432,18.438,13.312,17.333,13.312L17.333,13.312z M18,10.687h-1.334v1.313H18V10.687L18,10.687z M12,18.562c-1.104,0-1.999-0.881-1.999-1.967c0-1.089,0.896-1.971,1.999-1.971s1.999,0.882,1.999,1.971C13.999,17.681,13.104,18.562,12,18.562L12,18.562z M12.667,15.937h-1.334v1.313h1.334V15.937L12.667,15.937z M12,13.312c-1.104,0-1.999-0.88-1.999-1.969c0-1.087,0.896-1.967,1.999-1.967s1.999,0.88,1.999,1.967C13.999,12.432,13.104,13.312,12,13.312L12,13.312z M12.667,10.687h-1.334v1.313h1.334V10.687L12.667,10.687z M6.667,18.562c-1.105,0-2.001-0.881-2.001-1.967c0-1.089,0.896-1.971,2.001-1.971c1.104,0,2,0.882,2,1.971C8.667,17.681,7.771,18.562,6.667,18.562L6.667,18.562z M7.333,15.937H6v1.313h1.333V15.937L7.333,15.937z M6.667,13.312c-1.105,0-2.001-0.88-2.001-1.969c0-1.087,0.896-1.967,2.001-1.967c1.104,0,2,0.88,2,1.967C8.667,12.432,7.771,13.312,6.667,13.312L6.667,13.312z M7.333,10.687H6v1.313h1.333V10.687L7.333,10.687z"/></svg>